<svg viewBox="0 0 352 195.9" xmlns="http://www.w3.org/2000/svg"><g fill="#e5e5e5"><path d="m52.48 125.84-5-11.15a1.3 1.3 0 0 0 -1.58-.69l-17.9 6.44a1.33 1.33 0 0 1 -.88 0l-18.4-6.74h-.8l-5.46 12.14a1.27 1.27 0 0 1 -1.17.76 1.29 1.29 0 0 1 -1.18-1.8l25.38-58.13a1.27 1.27 0 0 1 1.18-.77h1.71a1.28 1.28 0 0 1 1.18.77l25.44 58.13a1.28 1.28 0 0 1 -1.17 1.8h-.2a1.3 1.3 0 0 1 -1.15-.76zm-8.38-17.24h-33.1a1.29 1.29 0 0 0 -1.18.77l-.15.34a1.28 1.28 0 0 0 .74 1.74l16.7 5.9a1.27 1.27 0 0 0 .86 0l16.68-5.93a1.28 1.28 0 0 0 .8-1.62l-.11-.32a1.29 1.29 0 0 0 -1.24-.88zm-17.75-36.81-14 32.11a1.29 1.29 0 0 0 1.18 1.8h28.12a1.29 1.29 0 0 0 1.18-1.81l-14.12-32.1a1.29 1.29 0 0 0 -2.36 0z"/><path d="m112.58 125.84-5-11.15a1.3 1.3 0 0 0 -1.58-.69l-17.94 6.44a1.33 1.33 0 0 1 -.88 0l-18.36-6.74h-.82l-5.46 12.14a1.27 1.27 0 0 1 -1.17.76 1.29 1.29 0 0 1 -1.18-1.8l25.4-58.13a1.27 1.27 0 0 1 1.18-.77h1.71a1.28 1.28 0 0 1 1.18.77l25.47 58.13a1.28 1.28 0 0 1 -1.18 1.8h-.19a1.3 1.3 0 0 1 -1.18-.76zm-8.38-17.24h-33.12a1.29 1.29 0 0 0 -1.18.77l-.15.34a1.28 1.28 0 0 0 .74 1.74l16.7 5.9a1.27 1.27 0 0 0 .86 0l16.68-5.93a1.27 1.27 0 0 0 .79-1.62l-.1-.32a1.29 1.29 0 0 0 -1.22-.88zm-17.75-36.81-14 32.11a1.29 1.29 0 0 0 1.18 1.8h28.16a1.29 1.29 0 0 0 1.18-1.81l-14.16-32.1a1.29 1.29 0 0 0 -2.36 0z"/><path d="m148.42 126.6h-27a1.74 1.74 0 0 1 -1.74-1.74v-57.12a1.74 1.74 0 0 1 1.78-1.74h14.66c.4 0 4.5.3 6.6.5 8.2.6 18.7 2.6 25.1 13.9a35.81 35.81 0 0 1 2.5 5.2 33.9 33.9 0 0 1 1.68 10.2c0 8.7-3.5 22-14.5 27.7-2.18 1.2-6.58 3.1-9.08 3.1zm8-30.53 4.69-18.38a1.74 1.74 0 0 0 -.35-1.55c-4.63-5.69-18.13-7.34-24.65-7.34h-11.84a1.74 1.74 0 0 0 -1.75 1.74v51.62a1.74 1.74 0 0 0 1.75 1.74h19.65c5.9 0 11.3-1 17.2-6.5.1-.4.3-.5.3-1l-5-19.47a1.79 1.79 0 0 1 .01-.86zm2.91.76 3.35 12.9a1.74 1.74 0 0 0 3.26.3 36 36 0 0 0 3.27-14.23 27.35 27.35 0 0 0 -3.42-13.16 1.75 1.75 0 0 0 -3.22.43l-3.24 12.93a1.67 1.67 0 0 0 .01.83z"/><path d="m219.32 125.3v-20.6a1.3 1.3 0 0 0 -1.3-1.3h-36.8a1.3 1.3 0 0 0 -1.3 1.3v20.6a1.3 1.3 0 0 1 -1.3 1.3h-.2a1.3 1.3 0 0 1 -1.3-1.3v-58.1a1.3 1.3 0 0 1 1.3-1.3h.1a1.3 1.3 0 0 1 1.3 1.3v24a1.3 1.3 0 0 0 1.3 1.3h36.8a1.3 1.3 0 0 0 1.3-1.3v-24a1.3 1.3 0 0 1 1.3-1.3h.1a1.3 1.3 0 0 1 1.3 1.3v58.1a1.3 1.3 0 0 1 -1.3 1.3 1.3 1.3 0 0 1 -1.3-1.3zm-1.4-30h-36.7a1.3 1.3 0 0 0 -1.3 1.3v2.7a1.3 1.3 0 0 0 1.3 1.3h36.7a1.3 1.3 0 0 0 1.3-1.3v-2.7a1.3 1.3 0 0 0 -1.3-1.3z"/><path d="m254 100.51a1.07 1.07 0 0 0 -.14.47l-1.44 42.46-1.33-42.44a.86.86 0 0 0 -.14-.47l-19.6-30.85 20.38 26.71a.92.92 0 0 0 1.5 0l32.13-45.18zm-2.1-13.63-8.6-13.26a.67.67 0 0 1 .57-1h.66a1 1 0 0 1 .83.45l6.55 10a.67.67 0 0 0 1.09-.07l6.54-10a1 1 0 0 1 .84-.45h.62a.68.68 0 0 1 .57 1l-8.57 13.33a.68.68 0 0 1 -1.1 0z"/><path d="m320.18 126.29-5-11.15a1.3 1.3 0 0 0 -1.61-.69l-17.94 6.44a1.33 1.33 0 0 1 -.88 0l-18.36-6.74h-.8l-5.46 12.14a1.3 1.3 0 0 1 -1.17.76 1.29 1.29 0 0 1 -1.18-1.8l25.37-58.13a1.29 1.29 0 0 1 1.18-.77h1.72a1.29 1.29 0 0 1 1.18.77l25.47 58.13a1.28 1.28 0 0 1 -1.18 1.8h-.19a1.3 1.3 0 0 1 -1.15-.76zm-8.38-17.24h-33.12a1.29 1.29 0 0 0 -1.18.77l-.15.34a1.28 1.28 0 0 0 .74 1.74l16.7 5.9a1.27 1.27 0 0 0 .86 0l16.68-5.93a1.28 1.28 0 0 0 .79-1.62l-.1-.32a1.29 1.29 0 0 0 -1.22-.88zm-17.75-36.81-14 32.11a1.29 1.29 0 0 0 1.18 1.8h28.16a1.29 1.29 0 0 0 1.18-1.81l-14.17-32.1a1.28 1.28 0 0 0 -2.35 0z"/></g><g fill="#1089ff"><rect height="33.72" rx="1.48" width="3" x="252.55" y="162.18"/><path d="m254.05 31.59a1.48 1.48 0 0 1 -1.48-1.48v-28.63a1.48 1.48 0 0 1 1.48-1.48 1.48 1.48 0 0 1 1.48 1.48v28.63a1.48 1.48 0 0 1 -1.48 1.48z"/><rect height="3" rx="1.48" width="31.88" x="320.12" y="96.45"/><rect height="33.19" rx="1.48" transform="matrix(.8660254 -.5 .5 .8660254 -44.72 169.91)" width="3" x="293.23" y="151.82"/><rect height="32.12" rx="1.48" transform="matrix(.8660254 -.5 .5 .8660254 15.03 110.16)" width="3" x="211.6" y="10.97"/><rect height="32.52" rx="1.48" transform="matrix(.5 -.8660254 .8660254 .5 42.21 350.69)" width="3" x="323.3" y="122.54"/><rect height="32.79" rx="1.48" transform="matrix(.5 -.8660254 .8660254 .5 42.19 187.43)" width="3" x="181.92" y="40.78"/><rect height="3" rx="1.48" transform="matrix(.86611266 -.49984884 .49984884 .86611266 -44.59 110.47)" width="33.85" x="166.96" y="136.96"/><rect height="3" rx="1.48" transform="matrix(.86611266 -.49984884 .49984884 .86611266 15.15 170.22)" width="31.44" x="309.54" y="55.33"/><rect height="3" rx="1.48" transform="matrix(.5 -.8660254 .8660254 .5 -38.78 268.97)" width="33.96" x="196.59" y="166.58"/><rect height="3" rx="1.48" transform="matrix(.49984884 -.86611266 .86611266 .49984884 124.51 269.01)" width="31.33" x="279.53" y="25.19"/><rect height="5.86" rx="2.93" transform="matrix(.70710678 -.70710678 .70710678 .70710678 2.8 207.97)" width="5.86" x="249.51" y="97.67"/></g></svg>